<svg viewBox="0 0 24 24" fill="none" xmlns="http://www.w3.org/2000/svg">
<path fill-rule="evenodd" clip-rule="evenodd" d="M22.9352 12.2621C23.2106 11.9429 23.175 11.4608 22.8558 11.1854C22.5365 10.91 22.0545 10.9455 21.779 11.2648C21.6926 11.365 20.5803 12.6293 18.8181 13.8675C17.0503 15.1097 14.6541 16.3076 11.9985 16.3076C9.34422 16.3076 6.94862 15.1097 5.18111 13.8678C3.41663 12.628 2.30351 11.3624 2.2192 11.2657C1.94208 10.948 1.45982 10.915 1.14205 11.1921C0.824278 11.4693 0.791329 11.9515 1.06845 12.2693C1.1453 12.3574 1.62421 12.9006 2.41888 13.6149L1.37726 14.6565C1.12882 14.9049 1.12882 15.3077 1.37726 15.5561C1.62569 15.8046 2.02848 15.8046 2.27691 15.5561L3.3946 14.4385C3.67604 14.6614 3.97956 14.8896 4.30331 15.1171C4.54134 15.2844 4.79232 15.4526 5.05541 15.6189L4.1733 16.8787C3.97178 17.1665 4.04172 17.5632 4.32952 17.7647C4.61732 17.9662 5.01399 17.8963 5.21551 17.6085L6.15896 16.2611C6.79823 16.6012 7.48965 16.9141 8.22458 17.1697L7.40234 18.933C7.25386 19.2514 7.39162 19.6299 7.71004 19.7784C8.02846 19.9269 8.40696 19.7891 8.55544 19.4707L9.41845 17.62C9.43234 17.5902 9.44373 17.5599 9.4527 17.5293C10.0591 17.6732 10.6891 17.7727 11.3384 17.8136V19.9482C11.3384 20.2995 11.6233 20.5844 11.9746 20.5844C12.3259 20.5844 12.6107 20.2995 12.6107 19.9482V17.8166C13.2726 17.7779 13.9144 17.6782 14.5318 17.5324C14.5417 17.5792 14.557 17.6256 14.578 17.6708L15.42 19.4763C15.5685 19.7947 15.947 19.9325 16.2654 19.784C16.5838 19.6355 16.7216 19.257 16.5731 18.9386L15.7518 17.1773C16.4813 16.9251 17.1681 16.6162 17.8039 16.2801L18.7332 17.6074C18.9347 17.8952 19.3314 17.9651 19.6192 17.7636C19.907 17.5621 19.9769 17.1654 19.7754 16.8776L18.9092 15.6405C19.1849 15.467 19.4475 15.2914 19.6959 15.1168C20.0744 14.8509 20.4252 14.5839 20.7455 14.3255L21.9771 15.5571C22.2255 15.8055 22.6283 15.8055 22.8767 15.5571C23.1252 15.3087 23.1252 14.9059 22.8767 14.6575L21.7131 13.4938C22.4271 12.8403 22.8582 12.3513 22.9352 12.2621Z" fill="currentColor"/>
</svg>
