<svg viewBox="0 0 24 24" fill="none" xmlns="http://www.w3.org/2000/svg">
<path fill-rule="evenodd" clip-rule="evenodd" d="M12.0012 6C8.92802 6 6.20479 7.37807 4.25235 8.74679L0.942543 11.6533C0.638719 12.0034 0.638898 12.5238 0.943082 12.8737L0.944047 12.8748C1.0562 13.0031 2.29351 14.405 4.2523 15.7785C6.20469 17.1475 8.92795 18.5263 12.0012 18.5263C15.0733 18.5263 17.7959 17.1475 19.748 15.7781C21.7031 14.4067 22.9398 13.0063 23.0573 12.8704C23.3607 12.5209 23.361 12.0016 23.0582 11.6517C22.9448 11.5202 21.7078 10.119 19.7498 8.74645C17.7977 7.37807 15.0744 6 12.0012 6ZM3.28986 11.9344C4.90252 10.4403 8.248 7.86425 12.0012 7.86425C15.7469 7.86425 19.0922 10.4405 20.7096 11.9347C20.9054 12.1156 20.9054 12.4126 20.7104 12.5932C19.096 14.0877 15.7532 16.6621 12.0012 16.6621C8.2523 16.6621 4.90572 14.0843 3.29058 12.5905C3.09549 12.4101 3.09556 12.1144 3.28986 11.9344ZM9.82649 12.303C9.82649 11.1027 10.7997 10.1295 12 10.1295C13.2003 10.1295 14.1735 11.1027 14.1735 12.303C14.1735 13.5033 13.2003 14.4765 12 14.4765C10.7997 14.4765 9.82649 13.5033 9.82649 12.303Z" fill="currentColor"/>
</svg>
