<svg viewBox="0 0 72 72" fill="none" xmlns="http://www.w3.org/2000/svg">
<path d="M55.5002 12.6667H48.5002V13.8333C48.5002 15.1167 47.4502 16.1667 46.1668 16.1667H25.1668C23.8835 16.1667 22.8335 15.1167 22.8335 13.8333V12.6667H15.8335C13.9085 12.6667 12.3335 14.2417 12.3335 16.1667V65.1667C12.3335 67.0917 13.9085 68.6667 15.8335 68.6667H55.5002C57.4252 68.6667 59.0002 67.0917 59.0002 65.1667V16.1667C59.0002 14.2417 57.4252 12.6667 55.5002 12.6667ZM25.8668 57.9333L21.2002 61.4333C20.9902 61.585 20.7452 61.6667 20.5002 61.6667C20.4068 61.6667 20.3252 61.655 20.2318 61.6317C19.8935 61.55 19.6135 61.3283 19.4502 61.0133L18.2835 58.68C17.9918 58.1083 18.2252 57.4083 18.8085 57.1167C19.3802 56.825 20.0802 57.0583 20.3718 57.6417L20.9085 58.7267L24.4552 56.0667C24.9685 55.6817 25.7035 55.7867 26.0885 56.3C26.4852 56.8133 26.3802 57.5483 25.8668 57.9333ZM25.8668 42.7667L21.2002 46.2667C20.9902 46.4183 20.7452 46.5 20.5002 46.5C20.4068 46.5 20.3252 46.4883 20.2318 46.465C19.8935 46.3833 19.6135 46.1617 19.4502 45.8467L18.2835 43.5133C17.9918 42.9417 18.2252 42.2417 18.8085 41.95C19.3802 41.6583 20.0802 41.8917 20.3718 42.475L20.9085 43.56L24.4552 40.9C24.9685 40.515 25.7035 40.62 26.0885 41.1333C26.4852 41.6467 26.3802 42.3817 25.8668 42.7667ZM25.8668 27.6L21.2002 31.1C20.9902 31.2517 20.7452 31.3333 20.5002 31.3333C20.4068 31.3333 20.3252 31.3217 20.2318 31.2983C19.8935 31.2167 19.6135 30.995 19.4502 30.68L18.2835 28.3467C17.9918 27.775 18.2252 27.075 18.8085 26.7833C19.3802 26.4917 20.0802 26.725 20.3718 27.3083L20.9085 28.3933L24.4552 25.7333C24.9685 25.3483 25.7035 25.4533 26.0885 25.9667C26.4852 26.48 26.3802 27.215 25.8668 27.6ZM50.8335 59.3333H29.8335C29.1918 59.3333 28.6668 58.8083 28.6668 58.1667C28.6668 57.525 29.1918 57 29.8335 57H50.8335C51.4752 57 52.0002 57.525 52.0002 58.1667C52.0002 58.8083 51.4752 59.3333 50.8335 59.3333ZM50.8335 44.1667H29.8335C29.1918 44.1667 28.6668 43.6417 28.6668 43C28.6668 42.3583 29.1918 41.8333 29.8335 41.8333H50.8335C51.4752 41.8333 52.0002 42.3583 52.0002 43C52.0002 43.6417 51.4752 44.1667 50.8335 44.1667ZM50.8335 29H29.8335C29.1918 29 28.6668 28.475 28.6668 27.8333C28.6668 27.1917 29.1918 26.6667 29.8335 26.6667H50.8335C51.4752 26.6667 52.0002 27.1917 52.0002 27.8333C52.0002 28.475 51.4752 29 50.8335 29Z" fill="white"/>
<path d="M46.1665 10.3333C46.1665 9.04999 45.1165 7.99999 43.8332 7.99999H40.4265L40.2398 7.06666C39.7965 4.90833 37.8832 3.33333 35.6665 3.33333C33.4615 3.33333 31.5365 4.90833 31.0932 7.06666L30.9065 7.99999H27.4998C26.2165 7.99999 25.1665 9.04999 25.1665 10.3333V13.8333H46.1665V10.3333ZM35.6665 11.5C33.7415 11.5 32.1665 9.92499 32.1665 7.99999C32.1665 6.07499 33.7415 4.49999 35.6665 4.49999C37.5915 4.49999 39.1665 6.07499 39.1665 7.99999C39.1665 9.92499 37.5915 11.5 35.6665 11.5Z" fill="#16A7A7"/>
<path d="M35.6665 4.5C33.7415 4.5 32.1665 6.075 32.1665 8C32.1665 9.925 33.7415 11.5 35.6665 11.5C37.5915 11.5 39.1665 9.925 39.1665 8C39.1665 6.075 37.5915 4.5 35.6665 4.5ZM35.6665 9.16667C35.0248 9.16667 34.4998 8.64167 34.4998 8C34.4998 7.35833 35.0248 6.83333 35.6665 6.83333C36.3082 6.83333 36.8332 7.35833 36.8332 8C36.8332 8.64167 36.3082 9.16667 35.6665 9.16667Z" fill="#481D72"/>
<path d="M55.5 10.3333H48.5C48.5 7.755 46.4117 5.66667 43.8333 5.66667H42.27C41.3017 2.91333 38.6533 1 35.6667 1C32.68 1 30.0433 2.91333 29.0633 5.66667H27.5C24.9217 5.66667 22.8333 7.755 22.8333 10.3333H15.8333C12.6133 10.3333 10 12.9467 10 16.1667V65.1667C10 68.3867 12.6133 71 15.8333 71H55.5C58.72 71 61.3333 68.3867 61.3333 65.1667V16.1667C61.3333 12.9467 58.72 10.3333 55.5 10.3333ZM25.1667 10.3333C25.1667 9.05 26.2167 8 27.5 8H30.9067L31.0933 7.06667C31.5367 4.90833 33.4617 3.33333 35.6667 3.33333C37.8833 3.33333 39.7967 4.90833 40.24 7.06667L40.4267 8H43.8333C45.1167 8 46.1667 9.05 46.1667 10.3333V13.8333H25.1667V10.3333ZM59 65.1667C59 67.0917 57.425 68.6667 55.5 68.6667H15.8333C13.9083 68.6667 12.3333 67.0917 12.3333 65.1667V16.1667C12.3333 14.2417 13.9083 12.6667 15.8333 12.6667H22.8333V13.8333C22.8333 15.1167 23.8833 16.1667 25.1667 16.1667H46.1667C47.45 16.1667 48.5 15.1167 48.5 13.8333V12.6667H55.5C57.425 12.6667 59 14.2417 59 16.1667V65.1667Z" fill="#481D72"/>
<path d="M50.8332 41.8333H29.8332C29.1915 41.8333 28.6665 42.3583 28.6665 43C28.6665 43.6417 29.1915 44.1667 29.8332 44.1667H50.8332C51.4748 44.1667 51.9998 43.6417 51.9998 43C51.9998 42.3583 51.4748 41.8333 50.8332 41.8333Z" fill="#481D72"/>
<path d="M50.8332 26.6667H29.8332C29.1915 26.6667 28.6665 27.1917 28.6665 27.8333C28.6665 28.475 29.1915 29 29.8332 29H50.8332C51.4748 29 51.9998 28.475 51.9998 27.8333C51.9998 27.1917 51.4748 26.6667 50.8332 26.6667Z" fill="#481D72"/>
<path d="M50.8332 57H29.8332C29.1915 57 28.6665 57.525 28.6665 58.1667C28.6665 58.8083 29.1915 59.3333 29.8332 59.3333H50.8332C51.4748 59.3333 51.9998 58.8083 51.9998 58.1667C51.9998 57.525 51.4748 57 50.8332 57Z" fill="#481D72"/>
<path d="M24.4663 40.9L20.9196 43.56L20.383 42.475C20.0913 41.9033 19.3913 41.67 18.8196 41.95C18.248 42.2417 18.0146 42.9417 18.2946 43.5133L19.4613 45.8467C19.613 46.1617 19.9046 46.3833 20.243 46.465C20.3246 46.4883 20.4063 46.5 20.4996 46.5C20.7446 46.5 20.9896 46.4183 21.1996 46.2667L25.8663 42.7667C26.3796 42.3817 26.4846 41.6467 26.0996 41.1333C25.7146 40.62 24.9796 40.515 24.4663 40.9Z" fill="#481D72"/>
<path d="M24.4663 56.0667L20.9196 58.7267L20.383 57.6417C20.0913 57.07 19.3913 56.825 18.8196 57.1167C18.248 57.4083 18.0146 58.1083 18.2946 58.68L19.4613 61.0133C19.613 61.3283 19.9046 61.55 20.243 61.6317C20.3246 61.655 20.4063 61.6667 20.4996 61.6667C20.7446 61.6667 20.9896 61.585 21.1996 61.4333L25.8663 57.9333C26.3796 57.5483 26.4846 56.8133 26.0996 56.3C25.7146 55.7867 24.9796 55.6817 24.4663 56.0667Z" fill="#481D72"/>
<path d="M24.4663 25.7333L20.9196 28.3933L20.383 27.3083C20.0913 26.7367 19.3913 26.5033 18.8196 26.7833C18.248 27.075 18.0146 27.775 18.2946 28.3467L19.4613 30.68C19.613 30.995 19.9046 31.2167 20.243 31.2983C20.3246 31.3217 20.4063 31.3333 20.4996 31.3333C20.7446 31.3333 20.9896 31.2517 21.1996 31.1L25.8663 27.6C26.3796 27.215 26.4846 26.48 26.0996 25.9667C25.7146 25.4533 24.9796 25.3483 24.4663 25.7333Z" fill="#481D72"/>
</svg>
