<svg viewBox="0 0 72 72" fill="none" xmlns="http://www.w3.org/2000/svg">
<path d="M36.0001 9.86363C36.6277 9.86363 37.1365 9.35486 37.1365 8.72727C37.1365 8.09967 36.6277 7.5909 36.0001 7.5909C35.3725 7.5909 34.8638 8.09967 34.8638 8.72727C34.8638 9.35486 35.3725 9.86363 36.0001 9.86363Z" fill="white"/>
<path d="M35.875 28.7727C28.9773 28.7727 23.375 34.375 23.375 41.2727C23.375 48.1704 28.9773 53.7727 35.875 53.7727C42.7727 53.7727 48.375 48.1704 48.375 41.2727C48.375 34.375 42.7727 28.7727 35.875 28.7727ZM42.3636 38.0909L34.4091 46.0454C34.1818 46.2727 33.8977 46.375 33.6023 46.375C33.3068 46.375 33.0227 46.2614 32.7955 46.0454L29.3864 42.6364C28.9432 42.1932 28.9432 41.4773 29.3864 41.0341C29.8295 40.5909 30.5455 40.5909 30.9886 41.0341L33.5909 43.6364L40.7386 36.4886C41.1818 36.0454 41.8977 36.0454 42.3409 36.4886C42.7841 36.9318 42.8068 37.6477 42.3636 38.0909Z" fill="#16A7A7"/>
<path d="M46.2275 11C46.2275 9.75 45.2048 8.72727 43.9548 8.72727H40.6366L40.4548 7.81818C40.0229 5.71591 38.1479 4.18182 36.0002 4.18182C33.8525 4.18182 31.9775 5.71591 31.5457 7.81818L31.3639 8.72727H28.0457C26.7957 8.72727 25.7729 9.75 25.7729 11V14.4091H46.2275V11ZM36.0002 12.1364C34.1252 12.1364 32.5911 10.6023 32.5911 8.72727C32.5911 6.85227 34.1252 5.31818 36.0002 5.31818C37.8752 5.31818 39.4093 6.85227 39.4093 8.72727C39.4093 10.6023 37.8752 12.1364 36.0002 12.1364Z" fill="white"/>
<path d="M55.3184 13.2727H48.5002V14.4091C48.5002 15.6591 47.4775 16.6818 46.2275 16.6818H25.7729C24.5229 16.6818 23.5002 15.6591 23.5002 14.4091V13.2727H16.682C14.807 13.2727 13.2729 14.8068 13.2729 16.6818V64.4091C13.2729 66.2841 14.807 67.8182 16.682 67.8182H55.3184C57.1934 67.8182 58.7275 66.2841 58.7275 64.4091V16.6818C58.7275 14.8068 57.1934 13.2727 55.3184 13.2727ZM35.8752 56.0454C27.7275 56.0454 21.1025 49.4204 21.1025 41.2727C21.1025 33.125 27.7275 26.5 35.8752 26.5C44.0229 26.5 50.6479 33.125 50.6479 41.2727C50.6479 49.4204 44.0229 56.0454 35.8752 56.0454Z" fill="white"/>
<path d="M35.9999 5.31818C34.1249 5.31818 32.5908 6.85227 32.5908 8.72727C32.5908 10.6023 34.1249 12.1364 35.9999 12.1364C37.8749 12.1364 39.409 10.6023 39.409 8.72727C39.409 6.85227 37.8749 5.31818 35.9999 5.31818ZM35.9999 9.86363C35.3749 9.86363 34.8635 9.35227 34.8635 8.72727C34.8635 8.10227 35.3749 7.5909 35.9999 7.5909C36.6249 7.5909 37.1363 8.10227 37.1363 8.72727C37.1363 9.35227 36.6249 9.86363 35.9999 9.86363Z" fill="#481D72"/>
<path d="M55.3182 11H48.5C48.5 8.48863 46.4659 6.45454 43.9545 6.45454H42.4318C41.4773 3.77272 38.9091 1.90909 36 1.90909C33.0909 1.90909 30.5227 3.77272 29.5682 6.45454H28.0455C25.5341 6.45454 23.5 8.48863 23.5 11H16.6818C13.5455 11 11 13.5455 11 16.6818V64.4091C11 67.5454 13.5455 70.0909 16.6818 70.0909H55.3182C58.4545 70.0909 61 67.5454 61 64.4091V16.6818C61 13.5455 58.4545 11 55.3182 11ZM25.7727 11C25.7727 9.75 26.7955 8.72727 28.0455 8.72727H31.3636L31.5455 7.81818C31.9773 5.71591 33.8523 4.18182 36 4.18182C38.1477 4.18182 40.0227 5.71591 40.4545 7.81818L40.6364 8.72727H43.9545C45.2045 8.72727 46.2273 9.75 46.2273 11V14.4091H25.7727V11ZM58.7273 64.4091C58.7273 66.2841 57.1932 67.8182 55.3182 67.8182H16.6818C14.8068 67.8182 13.2727 66.2841 13.2727 64.4091V16.6818C13.2727 14.8068 14.8068 13.2727 16.6818 13.2727H23.5V14.4091C23.5 15.6591 24.5227 16.6818 25.7727 16.6818H46.2273C47.4773 16.6818 48.5 15.6591 48.5 14.4091V13.2727H55.3182C57.1932 13.2727 58.7273 14.8068 58.7273 16.6818V64.4091Z" fill="#481D72"/>
<path d="M40.7501 36.4886L33.6024 43.6364L31.0001 41.0341C30.5569 40.5909 29.841 40.5909 29.3978 41.0341C28.9546 41.4773 28.9546 42.1932 29.3978 42.6364L32.8069 46.0455C33.0342 46.2727 33.3183 46.375 33.6137 46.375C33.9092 46.375 34.1933 46.2614 34.4205 46.0455L42.3751 38.0909C42.8183 37.6477 42.8183 36.9318 42.3751 36.4886C41.9319 36.0455 41.1933 36.0455 40.7501 36.4886Z" fill="white"/>
<path d="M35.8753 26.5C27.7275 26.5 21.1025 33.125 21.1025 41.2727C21.1025 49.4205 27.7275 56.0455 35.8753 56.0455C44.023 56.0455 50.648 49.4205 50.648 41.2727C50.648 33.125 44.023 26.5 35.8753 26.5ZM35.8753 53.7727C28.9775 53.7727 23.3753 48.1705 23.3753 41.2727C23.3753 34.375 28.9775 28.7727 35.8753 28.7727C42.773 28.7727 48.3753 34.375 48.3753 41.2727C48.3753 48.1705 42.773 53.7727 35.8753 53.7727Z" fill="#481D72"/>
</svg>
