<svg viewBox="0 0 72 72" fill="none" xmlns="http://www.w3.org/2000/svg">
<path d="M42.4509 44.6028C43.1098 45.1816 43.4838 46.0186 43.4838 46.9002C43.4838 48.5921 42.1036 49.9723 40.4117 49.9723C38.7198 49.9723 37.3396 48.5921 37.3396 46.9002C37.3396 46.0542 37.678 45.2706 38.2835 44.6829C38.3815 44.5671 38.4527 44.4247 38.4527 44.3089C38.4527 44.2822 38.4527 44.2288 38.3993 44.1664H33.2702H27.8116C27.7225 44.1664 27.6246 44.1397 27.5355 44.113C27.5088 44.1041 27.491 44.0952 27.4643 44.0863C27.4465 44.0774 27.4198 44.0685 27.402 44.0596C26.7875 43.6945 26.4403 43.0979 26.4403 42.43C26.4403 41.9224 26.6451 41.406 27.0191 40.9785C27.0369 40.9607 27.0814 40.9073 27.0992 40.8895C27.3931 40.6045 27.5533 40.2306 27.5533 39.8298C27.5533 39.0195 26.8944 38.3606 26.0841 38.3606C25.2737 38.3606 24.6148 39.0195 24.6148 39.8298C24.6148 40.2751 24.8107 40.6847 25.1491 40.9696C25.2559 41.0587 25.345 41.1655 25.4162 41.2902C25.621 41.6642 25.7279 42.0471 25.7279 42.4122C25.7279 43.089 25.3806 43.6767 24.7573 44.0507C24.7395 44.0596 24.7217 44.0596 24.7038 44.0685C24.6593 44.0952 24.6059 44.1041 24.5525 44.1219C24.499 44.1397 24.4456 44.1486 24.3922 44.1575C24.3744 44.1575 24.3566 44.1664 24.3388 44.1664H19.7885V58.2893H32.1927V55.2617C32.1927 54.8164 32.5489 54.4602 32.9941 54.4602C33.4393 54.4602 33.7955 54.8164 33.7955 55.2617V58.2893H47.4019V44.1664H42.4331C42.3618 44.2555 42.3351 44.3712 42.4509 44.6028Z" fill="white"/>
<path d="M21.1063 36.081C21.4714 35.4131 21.2132 34.5761 20.5453 34.211L14.597 30.6224C14.4011 30.5066 14.2675 30.3107 14.223 30.0881L13.5373 26.4817C13.4572 26.0454 13.7421 25.6269 14.1785 25.5467C14.6148 25.4666 15.0333 25.7515 15.1135 26.1879L15.7368 29.447L18.1767 30.9163V29.6162L16.4937 27.9599C16.3957 27.8708 16.3334 27.7551 16.2889 27.6304L15.532 25.1994C15.2114 24.4158 14.5703 23.6767 13.9291 23.374C13.9291 23.374 13.9291 23.374 13.9202 23.374C13.6531 23.3295 13.3859 23.2671 13.1277 23.1781C12.3975 22.9287 11.7653 22.5102 11.2399 21.967C10.7234 22.2075 9.72612 22.7685 9.3165 23.748C7.90956 29.1887 5.65668 38.0489 5.59434 38.8147L5.17582 47.8085C5.17582 47.8441 5.16692 47.8797 5.16692 47.9064L3.62641 56.6686C3.57298 57.007 3.67093 57.3721 3.88464 57.6659C4.09835 57.9598 4.42783 58.1557 4.79292 58.2091C5.60325 58.3427 6.25329 57.7817 6.36015 57.0515L7.91847 48.1557C7.91847 48.129 7.92737 48.0756 7.92737 48.0311L8.23013 40.7648C8.23904 40.5066 8.38151 40.2662 8.59522 40.1237C8.81784 39.9812 9.09389 39.9634 9.33431 40.0614C9.78845 40.2484 9.78845 40.2484 11.9523 48.0667C11.9701 48.129 11.979 48.1824 11.979 48.2448L12.3619 56.9001C12.3886 57.6481 12.9941 58.2358 13.7421 58.2358C14.5525 58.2091 15.1491 57.568 15.1224 56.8022L14.7306 47.9331C14.7306 47.8352 14.7127 47.7461 14.6949 47.6482L12.2729 37.9599C12.2729 37.9599 12.2194 37.8085 12.2105 37.8085C12.1571 37.666 12.1482 37.5057 12.1749 37.3543L12.7804 34.6651L11.6317 33.9795C10.8837 33.5788 10.3316 32.8308 10.1535 31.967L9.59255 28.2092C9.53022 27.7729 9.83298 27.3633 10.2693 27.3009C10.7056 27.2297 11.1153 27.5325 11.1776 27.9777L11.7297 31.691C11.8009 32.056 12.0591 32.3944 12.4153 32.5903L19.2541 36.6687C19.361 36.7221 19.5124 36.7755 19.6638 36.8022C20.2515 36.8735 20.8303 36.5885 21.1063 36.081Z" fill="white"/>
<path d="M13.6353 21.6464C13.8134 21.7088 13.9826 21.7444 14.1607 21.7711C15.6834 22.0115 17.1437 21.1121 17.6335 19.6518C17.9006 18.8504 17.8472 17.9955 17.4643 17.2386C17.0903 16.4817 16.4403 15.9207 15.6388 15.6447C15.3183 15.5467 14.9799 15.4933 14.6504 15.4933C13.3325 15.4933 12.0948 16.3303 11.6495 17.6482C11.3824 18.4496 11.4358 19.3045 11.8187 20.0614C12.1927 20.8183 12.8339 21.3793 13.6353 21.6464Z" fill="white"/>
<path d="M62.255 21.1745C64.0626 21.1745 65.5408 19.6963 65.5408 17.8887C65.5408 16.081 64.0626 14.6029 62.255 14.6029C60.4473 14.6029 58.9691 16.081 58.9691 17.8887C58.9691 19.6963 60.4384 21.1745 62.255 21.1745Z" fill="white"/>
<path d="M22.5132 36.8379C21.9879 37.8085 20.9727 38.4051 19.8864 38.4051C19.8507 38.4051 19.8062 38.3962 19.7706 38.3962V42.5725H24.0448C24.0983 42.5013 24.1072 42.4478 24.1072 42.4211C24.1072 42.3499 24.0805 42.2519 24.027 42.1451C23.3681 41.5663 22.9941 40.7292 22.9941 39.8477C22.9941 38.1558 24.3743 36.7756 26.0662 36.7756C27.7581 36.7756 29.1383 38.1558 29.1383 39.8477C29.1383 40.6847 28.8089 41.4683 28.2122 42.0471C28.0698 42.2341 28.0252 42.3588 28.0252 42.4478C28.0252 42.4746 28.0341 42.528 28.0787 42.5814H32.1748V37.5859C32.1748 37.39 32.2283 37.203 32.3262 37.0338C32.6913 36.4194 33.2879 36.0632 33.9558 36.0632C34.4633 36.0632 34.9798 36.268 35.4072 36.642C35.4161 36.6509 35.4696 36.6954 35.4785 36.7132C35.7723 37.016 36.1463 37.1763 36.547 37.1763C37.3574 37.1763 38.0163 36.5173 38.0163 35.707C38.0163 34.8967 37.3574 34.2377 36.547 34.2377C36.1018 34.2377 35.6922 34.4336 35.4072 34.772C35.3271 34.8789 35.2202 34.959 35.0956 35.0302C34.0003 35.6269 32.905 35.3419 32.3173 34.3713C32.2104 34.2021 32.157 34.0062 32.157 33.8103V29.0819H19.7706V31.593C19.7706 31.691 19.7439 31.78 19.7172 31.8602L21.3378 32.8397C22.7537 33.5788 23.2969 35.3864 22.5132 36.8379Z" fill="#481D72"/>
<path d="M55.8703 23.8993L54.4366 23.7747C54.3387 23.7658 54.2407 23.739 54.1428 23.6945L51.2131 22.2163V24.1932L53.7688 25.2796L55.8703 23.8993Z" fill="white"/>
<path d="M67.0457 48.4763C67.0368 48.4317 67.0368 48.3872 67.0368 48.3427L67.1169 39.3579C67.1347 38.601 66.1285 29.3401 65.4963 23.6678C65.3805 22.9198 64.677 22.5102 64.2852 22.3321C63.6619 22.617 62.9762 22.7862 62.246 22.7862C61.7563 22.7862 61.2843 22.715 60.848 22.5814L54.2852 26.8557C54.0626 26.9982 53.7777 27.0249 53.5373 26.918L48.3369 24.7096C47.7225 24.4692 46.8944 24.6028 46.5471 25.3419C46.3245 25.8049 46.4046 26.3659 46.7341 26.7577C46.8587 26.9091 47.0101 27.0249 47.1882 27.105L53.5996 29.8298C53.8578 29.9367 54.1428 29.9367 54.3921 29.8298C55.9682 29.1353 58.8088 27.3543 58.8355 27.3365C58.8355 27.3365 58.8445 27.3365 58.8445 27.3276C58.8445 27.3276 58.8444 27.3187 58.8534 27.3187C59.6904 26.829 60.2781 26.455 60.2781 26.455C60.6521 26.2234 61.1508 26.3303 61.3823 26.7043C61.6138 27.0783 61.507 27.577 61.133 27.8085C61.133 27.8085 60.7055 28.0756 60.0644 28.4585L60.0199 37.7817C60.0644 38.3605 59.5746 39.8565 57.6245 45.7425C57.2594 46.8467 56.921 47.8797 56.8765 48.031L55.5853 56.6597C55.4518 57.4077 55.9237 58.1022 56.645 58.2269C56.7608 58.2447 56.8676 58.2536 56.9834 58.2447C57.58 58.2002 58.0786 57.755 58.1855 57.1672L59.3965 48.9927C59.4054 48.9393 59.4143 48.8859 59.4322 48.8414L62.3796 40.6045C62.5043 40.2483 62.8694 40.0346 63.2523 40.0791C63.6263 40.1326 63.9201 40.4442 63.9379 40.8271C64.0982 43.7746 64.3476 48.2804 64.3832 48.5831L65.7634 57.1672C65.8613 57.755 66.3333 58.2091 66.921 58.2714C67.1881 58.307 67.4553 58.2536 67.7046 58.12C68.1944 57.8707 68.4615 57.2652 68.3636 56.6508L67.0457 48.4763Z" fill="white"/>
<path d="M48.9424 23.2226L49.6192 23.5075V15.244H37.2061V19.3579C37.3396 19.4915 37.3574 19.4381 37.5444 19.349C38.0965 18.7346 38.8712 18.3873 39.6994 18.3873C41.2933 18.3873 42.5934 19.6874 42.5934 21.2814C42.5934 22.8753 41.2933 24.1754 39.6994 24.1754C38.9069 24.1754 38.1678 23.8548 37.6157 23.2849C37.5088 23.187 37.3752 23.1513 37.3129 23.1513C37.2951 23.1513 37.2595 23.1513 37.215 23.187V27.5503H41.4625C41.5961 27.5503 41.9434 27.5681 42.2016 27.7462C42.7092 28.1113 42.9941 28.6366 42.9941 29.2243C42.9941 29.7052 42.7982 30.195 42.442 30.5957C42.4242 30.6224 42.3708 30.6758 42.3441 30.7025C42.1125 30.9251 41.9701 31.2546 41.9701 31.6108C41.9701 32.3232 42.5489 32.902 43.2612 32.902C43.9736 32.902 44.5524 32.3232 44.5524 31.6108C44.5524 31.2279 44.3832 30.8628 44.0805 30.6135C43.9736 30.5244 43.8846 30.4176 43.8133 30.2929C43.288 29.3223 43.475 28.3784 44.312 27.7551C44.5702 27.5681 44.9086 27.5503 45.0066 27.5503H45.3449C44.7572 26.7043 44.6504 25.5912 45.0956 24.6473C45.7546 23.2404 47.4108 22.626 48.9424 23.2226Z" fill="#16A7A7"/>
<path d="M67.0723 59.4558C66.9832 59.4558 66.8853 59.4469 66.7962 59.438C65.6921 59.3133 64.8016 58.4585 64.6235 57.3632L63.2344 48.7523C63.2255 48.6544 63.172 47.8975 63.0028 44.8521L62.8782 42.6615L60.5541 49.1531L59.3341 57.3632C59.1293 58.4763 58.1943 59.3222 57.0723 59.4024C57.01 59.4113 56.9566 59.4113 56.8942 59.4113C56.7428 59.4113 56.5826 59.3935 56.4401 59.3667C55.0955 59.1174 54.205 57.8173 54.4543 56.4727L55.7544 47.7906C55.7722 47.666 55.9236 47.2207 56.538 45.3686C57.6689 41.9492 58.7375 38.69 58.8622 38.0044L58.8711 37.951L58.9067 28.6277L58.2299 29.0285C57.2326 29.6251 55.8435 30.4176 54.864 30.8539C54.5879 30.9697 54.303 31.032 54.0002 31.032C53.7063 31.032 53.4214 30.9697 53.1543 30.8628L48.0341 28.6901H47.8649L47.8382 28.699H44.8996L44.766 28.9127C44.579 29.2155 44.7304 29.5271 44.7749 29.634L44.8106 29.7141L44.8818 29.7764C45.3983 30.2395 45.701 30.9073 45.701 31.6019C45.701 32.9554 44.6057 34.0507 43.2522 34.0507C41.8987 34.0507 40.8034 32.9554 40.8034 31.6019C40.8034 30.9341 41.0706 30.3018 41.5603 29.8388C41.6672 29.723 41.8275 29.4915 41.8275 29.2244V29.1086L41.7562 28.9394L41.6316 28.7079H36.6717C36.3244 28.7079 36.0483 28.4318 36.0483 28.0846V23.0089C36.0483 22.8931 36.0751 22.7863 36.1374 22.6883C36.4045 22.2431 36.832 21.9937 37.3039 21.9937C37.6779 21.9937 38.0697 22.1451 38.3903 22.4301C38.7821 22.8308 39.2273 23.0178 39.6993 23.0178C40.661 23.0178 41.4357 22.2342 41.4357 21.2814C41.4357 20.3197 40.6521 19.545 39.6993 19.545C39.1739 19.545 38.6841 19.7765 38.3547 20.1772C38.3012 20.2395 38.2478 20.284 38.1766 20.3286C37.8916 20.4889 37.6067 20.569 37.3217 20.569C36.8409 20.569 36.4134 20.3197 36.1374 19.8566C36.0751 19.7587 36.0483 19.6518 36.0483 19.5361V14.7097C36.0483 14.3624 36.3244 14.0864 36.6717 14.0864H50.1445C50.4918 14.0864 50.7678 14.3624 50.7678 14.7097V20.6046L51.026 20.8629H51.1062L54.6057 22.626L58.1587 22.9376L59.9752 21.7533L59.4944 21.3704C58.4169 20.5156 57.8025 19.2511 57.8025 17.8887C57.8025 15.4399 59.7972 13.4452 62.2459 13.4452C64.6947 13.4452 66.6894 15.4399 66.6894 17.8887C66.6894 19.0641 66.2352 20.1683 65.4071 21.0053L65.0509 21.3793L65.4694 21.6821C66.1462 22.1718 66.5469 22.7952 66.6538 23.5254C67.6956 32.813 68.3189 38.9038 68.2833 39.4113L68.2032 48.2893L69.5211 56.4905C69.6992 57.6125 69.1916 58.69 68.2477 59.1708C67.8737 59.3578 67.473 59.4558 67.0723 59.4558ZM63.1987 40.5333C63.359 40.56 63.4926 40.6936 63.5015 40.8628C63.5193 41.1656 63.9022 48.227 63.9467 48.6455L65.3359 57.2474C65.4605 58.031 66.1017 58.6366 66.8853 58.7256C66.9476 58.7345 67.0189 58.7345 67.0901 58.7345C67.375 58.7345 67.66 58.6633 67.9271 58.5208C68.5861 58.1824 68.9512 57.3899 68.8176 56.5796L67.4997 48.3873L67.5799 39.3401C67.5977 38.512 66.5291 28.6812 65.9592 23.5966C65.8167 22.6349 64.9797 22.1184 64.4899 21.9047L64.3029 21.8246L64.1159 21.9136C63.5282 22.1897 62.9049 22.3232 62.2638 22.3232C61.8363 22.3232 61.4089 22.2609 60.9904 22.1362L60.7767 22.0828L54.0447 26.4728C53.9824 26.5084 53.9201 26.5351 53.8488 26.5351C53.8043 26.5351 53.7509 26.5262 53.7063 26.5084L48.506 24.3001C48.2567 24.2021 47.9984 24.1576 47.7491 24.1576C47.0278 24.1576 46.4312 24.5316 46.1374 25.1549C45.8435 25.7782 45.9415 26.5173 46.3867 27.0427C46.547 27.2386 46.7518 27.3989 46.9922 27.5058L53.4125 30.2306C53.5995 30.3107 53.7865 30.3463 53.9824 30.3463C54.1872 30.3463 54.3831 30.3018 54.5612 30.2217C56.0572 29.5627 58.6306 27.9688 59.0135 27.7284L59.1115 27.666C59.8684 27.2208 60.4294 26.8646 60.5006 26.829C60.563 26.7934 60.6253 26.7667 60.6965 26.7667C60.8212 26.7667 60.937 26.829 60.9993 26.9359C61.1061 27.105 61.0527 27.3188 60.8835 27.4256C60.8835 27.4256 60.4561 27.6928 59.8239 28.0757L59.6102 28.2003L59.5656 37.7729C59.6102 38.3071 58.9512 40.2929 57.197 45.6001L57.1703 45.6891C56.7428 46.9714 56.4846 47.7639 56.4401 47.9153L55.14 56.5885C54.9619 57.5502 55.5941 58.4852 56.5558 58.6633C56.6627 58.6811 56.7785 58.69 56.8942 58.69H57.0011C57.8114 58.6277 58.4704 58.0399 58.6217 57.2474L59.8328 49.0551L62.798 40.7559C62.8515 40.6135 62.985 40.5244 63.1364 40.5244L63.1987 40.5333ZM37.3128 22.715C37.1614 22.715 37.0368 22.7685 36.921 22.8664L36.7696 23V28.0044H41.4624C41.6049 28.0044 41.8186 28.0311 41.9432 28.1202C42.3351 28.4051 42.5488 28.788 42.5488 29.2333C42.5488 29.6073 42.3974 29.9902 42.1124 30.3107L42.0501 30.382C41.7206 30.7025 41.5336 31.1478 41.5336 31.6197C41.5336 32.5814 42.3172 33.3561 43.27 33.3561C44.2228 33.3561 45.0065 32.5725 45.0065 31.6197C45.0065 31.1032 44.7749 30.6135 44.3742 30.2751C44.3119 30.2217 44.2585 30.1594 44.2228 30.0881C43.7954 29.3045 43.929 28.6099 44.5968 28.1202C44.7215 28.0311 44.9085 28.0044 45.0332 28.0044H46.2175L45.7366 27.3098C45.238 26.5797 45.1578 25.6447 45.5229 24.8522C45.9236 23.9884 46.7874 23.4452 47.7758 23.4452C48.1231 23.4452 48.4615 23.5075 48.7999 23.6411L50.0821 24.1843V14.7988H36.7607V19.545L36.8943 19.6785C36.9477 19.732 37.108 19.8833 37.3395 19.8833C37.4731 19.8833 37.5799 19.8299 37.6601 19.7943L37.7491 19.7587L37.8827 19.6518C38.3458 19.1353 39.0136 18.8326 39.7082 18.8326C41.0617 18.8326 42.157 19.9279 42.157 21.2814C42.157 22.6349 41.0617 23.7302 39.7082 23.7302C39.0403 23.7302 38.4081 23.463 37.945 22.9733C37.7313 22.8041 37.5087 22.715 37.3128 22.715ZM50.7678 24.4871L53.8132 25.7782L57.197 23.5699L54.4811 23.3384C54.4365 23.3384 54.392 23.3205 54.3475 23.3027L50.7678 21.4951V24.4871ZM62.2549 14.1576C60.1979 14.1576 58.5238 15.8317 58.5238 17.8887C58.5238 19.9457 60.1979 21.6198 62.2549 21.6198C64.3118 21.6198 65.9859 19.9457 65.9859 17.8887C65.9859 15.8317 64.3118 14.1576 62.2549 14.1576Z" fill="white"/>
<path d="M46.5826 27.7818C46.6628 27.8352 46.7518 27.8797 46.8409 27.9243L47.6779 28.2804H46.921L46.5826 27.7818ZM62.2549 13C59.5568 13 57.3662 15.1906 57.3662 17.8887C57.3662 19.4381 58.0964 20.8183 59.2273 21.7177L58.0608 22.4835L54.7482 22.1985L51.2309 20.4265V14.7097C51.2309 14.122 50.75 13.6411 50.1623 13.6411H36.6717C36.084 13.6411 35.6031 14.122 35.6031 14.7097V19.536C35.6031 19.7319 35.6566 19.9189 35.7545 20.0881C36.1196 20.6847 36.6895 21.0142 37.3218 21.0142C37.669 21.0142 38.0341 20.9163 38.3992 20.7204C38.515 20.6491 38.6218 20.569 38.702 20.4621C38.9513 20.1594 39.3164 19.9902 39.6993 19.9902C40.4117 19.9902 40.9905 20.569 40.9905 21.2814C40.9905 21.9937 40.4117 22.5725 39.6993 22.5725C39.3431 22.5725 39.0136 22.4301 38.7643 22.1718C38.7465 22.154 38.6931 22.1095 38.6842 22.0917C38.2835 21.7355 37.7937 21.5396 37.3039 21.5396C36.6628 21.5396 36.1018 21.878 35.7545 22.4568C35.6566 22.626 35.6031 22.813 35.6031 23.0089V28.0845C35.6031 28.6723 36.084 29.1531 36.6717 29.1531H41.3645C41.3823 29.1798 41.3823 29.2065 41.3823 29.2243C41.3823 29.3134 41.3289 29.4292 41.2487 29.5182C40.6788 30.0703 40.3583 30.8094 40.3583 31.6019C40.3583 33.1958 41.6583 34.4959 43.2523 34.4959C44.8462 34.4959 46.1463 33.1958 46.1463 31.6019C46.1463 30.7738 45.7901 29.9902 45.1757 29.447C45.1045 29.2956 45.1045 29.2065 45.1401 29.1531H47.8827C47.9005 29.1531 47.9094 29.1442 47.9272 29.1442L52.9673 31.2813C53.2968 31.4238 53.6441 31.4861 53.9913 31.4861C54.3475 31.4861 54.7037 31.4149 55.0332 31.2635C56.0305 30.8183 57.4464 30.0169 58.4437 29.4113L58.4081 37.8797C58.4081 37.8886 58.4081 37.9064 58.4081 37.9153C58.2656 38.6722 56.8052 43.08 56.0928 45.2261C55.4161 47.2563 55.327 47.5591 55.2914 47.7194L53.9913 56.3837C53.6975 57.9687 54.7482 59.5003 56.3333 59.7942C56.5114 59.8298 56.6895 59.8476 56.8765 59.8476C56.9477 59.8476 57.0189 59.8476 57.0813 59.8387C58.4081 59.7407 59.5033 58.7612 59.7527 57.4255L60.9548 49.2955L62.5577 44.8877C62.6734 46.9981 62.7714 48.6989 62.7981 48.8325L64.1872 57.4433C64.392 58.7345 65.4517 59.7407 66.7518 59.8832C66.8586 59.8921 66.9744 59.901 67.0812 59.901C67.5532 59.901 68.0251 59.7852 68.4526 59.5626C69.5657 58.9838 70.1712 57.7194 69.9575 56.4104L68.6485 48.2893L68.7286 39.4558C68.8088 38.7969 67.6155 28.0667 67.099 23.4541C66.9477 22.4301 66.3332 21.7444 65.7366 21.317C66.6093 20.4354 67.1436 19.2244 67.1436 17.8887C67.1436 15.1906 64.9441 13 62.2549 13ZM62.2549 21.1745C60.4472 21.1745 58.9691 19.6963 58.9691 17.8887C58.9691 16.081 60.4472 14.6028 62.2549 14.6028C64.0625 14.6028 65.5407 16.081 65.5407 17.8887C65.5407 19.6963 64.0625 21.1745 62.2549 21.1745ZM37.3396 19.4381C37.3039 19.4381 37.2683 19.4203 37.206 19.3579V15.244H49.6102V23.5075L48.9335 23.2226C48.5417 23.0712 48.141 23 47.7491 23C46.6183 23 45.5853 23.6144 45.0956 24.6562C44.6503 25.6001 44.7572 26.7132 45.3449 27.5592H45.0065C44.9086 27.5592 44.5702 27.577 44.3119 27.764C43.466 28.3784 43.2879 29.3312 43.8133 30.3018C43.8756 30.4265 43.9647 30.5333 44.0804 30.6224C44.3832 30.8717 44.5524 31.2368 44.5524 31.6197C44.5524 32.3321 43.9736 32.9109 43.2612 32.9109C42.5488 32.9109 41.97 32.3321 41.97 31.6197C41.97 31.2635 42.1125 30.934 42.344 30.7114C42.3707 30.6936 42.4241 30.6313 42.442 30.6046C42.7981 30.2039 42.994 29.7141 42.994 29.2333C42.994 28.6455 42.718 28.1202 42.2015 27.7551C41.9522 27.577 41.6049 27.5592 41.4624 27.5592H37.2149V23.1959C37.2594 23.1603 37.295 23.1603 37.3129 23.1603C37.3841 23.1603 37.5088 23.1959 37.6156 23.2938C38.1677 23.8637 38.9068 24.1843 39.6993 24.1843C41.2933 24.1843 42.5933 22.8842 42.5933 21.2903C42.5933 19.6963 41.2933 18.3962 39.6993 18.3962C38.8712 18.3962 38.0965 18.7435 37.5444 19.3579C37.4375 19.4025 37.393 19.4381 37.3396 19.4381ZM53.7687 25.2707L51.2131 24.1843V22.2075L54.1427 23.6856C54.2318 23.7302 54.3297 23.7569 54.4366 23.7658L55.8702 23.8904L53.7687 25.2707ZM62.2549 22.7774C62.9851 22.7774 63.6707 22.6082 64.2941 22.3232C64.6859 22.5013 65.3893 22.9198 65.5051 23.6589C66.1373 29.3312 67.1436 38.5921 67.1258 39.349L67.0456 48.3338C67.0456 48.3783 67.0456 48.4229 67.0545 48.4674L68.3724 56.6597C68.4704 57.2741 68.2032 57.8796 67.7135 58.129C67.5176 58.2358 67.295 58.2893 67.0812 58.2893C67.0278 58.2893 66.9744 58.2893 66.9299 58.2804C66.3422 58.2091 65.8702 57.755 65.7722 57.1762L64.392 48.5921C64.3564 48.2804 64.1071 43.7835 63.9468 40.8361C63.929 40.4532 63.644 40.1415 63.2611 40.0881C63.2255 40.0792 63.1899 40.0792 63.1543 40.0792C62.8159 40.0792 62.5131 40.284 62.3974 40.6134L59.4499 48.8503C59.4321 48.9037 59.4232 48.9482 59.4143 49.0017L58.2033 57.1762C58.0964 57.7728 57.5977 58.218 57.0011 58.2536C56.9744 58.2536 56.9388 58.2536 56.9121 58.2536C56.823 58.2536 56.7429 58.2447 56.6627 58.2269C55.9415 58.0934 55.4695 57.3988 55.6031 56.6597L56.8943 48.0311C56.9299 47.8797 57.2772 46.8378 57.6423 45.7425C59.5924 39.8566 60.0821 38.3517 60.0376 37.7818L60.0822 28.4585C60.7233 28.0756 61.1507 27.8085 61.1507 27.8085C61.5247 27.577 61.6405 27.0783 61.4 26.7043C61.2487 26.4639 60.9904 26.3303 60.7233 26.3303C60.5808 26.3303 60.4294 26.3659 60.2959 26.455C60.2959 26.455 59.6992 26.829 58.8711 27.3187C58.8711 27.3187 58.8711 27.3276 58.8622 27.3276C58.8622 27.3276 58.8533 27.3276 58.8533 27.3366C58.8266 27.3544 55.986 29.1264 54.4099 29.8299C54.2852 29.8833 54.1516 29.91 54.0092 29.91C53.8756 29.91 53.742 29.8833 53.6173 29.8299L47.206 27.105C47.0279 27.0249 46.8765 26.9091 46.7518 26.7577C46.4224 26.3659 46.3511 25.8049 46.5648 25.3419C46.8053 24.8254 47.2861 24.6028 47.767 24.6028C47.9718 24.6028 48.1677 24.6384 48.3458 24.7097L53.5461 26.918C53.6441 26.9626 53.7509 26.9804 53.8578 26.9804C54.0091 26.9804 54.1605 26.9358 54.2941 26.8468L60.8569 22.5725C61.2932 22.7061 61.7651 22.7774 62.2549 22.7774Z" fill="#481D72"/>
<path d="M18.9692 59.4558C18.7733 59.4558 18.613 59.2955 18.613 59.0996V37.6126L13.9292 34.8254L13.3325 37.4968L13.3682 37.6126L15.808 47.3721C15.8437 47.5324 15.8704 47.7105 15.8793 47.8797L16.2711 56.7576C16.3245 58.1557 15.2292 59.34 13.8312 59.3934H13.7333C12.3708 59.3934 11.2577 58.316 11.2043 56.9535L10.8214 48.3338L9.29872 42.8752L9.0761 48.0845C9.0761 48.1735 9.06719 48.2626 9.04938 48.3516L7.49106 57.2296C7.31297 58.4673 6.2355 59.3845 4.98884 59.3845C4.86418 59.3845 4.73951 59.3756 4.61485 59.3578C3.947 59.2599 3.35038 58.9037 2.94967 58.3605C2.54896 57.8173 2.37977 57.1494 2.47772 56.4816L4.00933 47.7639L4.43675 38.7702C4.44566 38.5386 4.73061 36.8378 8.21234 23.4096C8.6932 22.1718 9.73505 21.4416 10.5187 21.032L10.9016 20.8361L10.7235 20.4532C10.2604 19.4292 10.1981 18.3072 10.5454 17.2742C11.142 15.5111 12.7894 14.3268 14.6415 14.3268C15.1046 14.3268 15.5676 14.398 16.0039 14.5494C17.0992 14.9145 17.9808 15.6892 18.4973 16.7221C19.0137 17.7551 19.0939 18.9305 18.7288 20.0258C18.2925 21.317 17.304 22.3143 16.0129 22.7417L15.4073 22.9465L15.808 23.4452C16.1464 23.8637 16.4314 24.3446 16.6184 24.8076L17.3575 27.1763L18.4349 28.2448L18.7466 27.9866C18.8178 27.9242 18.8891 27.8975 18.9692 27.8975H32.9763C33.1633 27.8975 33.3236 28.0489 33.3325 28.2359V33.7924L33.4393 33.9171C33.662 34.1664 33.8935 34.1664 33.9736 34.1664C34.1161 34.1664 34.2764 34.1308 34.4456 34.0507L34.5257 34.0151L34.588 33.9438C35.0867 33.3828 35.808 33.0534 36.556 33.0534C38.0074 33.0534 39.1829 34.2377 39.1829 35.6802C39.1829 37.1317 38.0074 38.3071 36.556 38.3071C35.8436 38.3071 35.1757 38.0222 34.6771 37.5146C34.401 37.292 34.1695 37.194 33.9558 37.194C33.7599 37.194 33.5907 37.2653 33.4571 37.4167L33.3325 37.5413V42.9999H38.4616C38.613 42.9999 38.8445 43.0355 38.9691 43.1246C39.3788 43.4184 39.6103 43.8369 39.6103 44.3089C39.6103 44.7096 39.4411 45.1192 39.1383 45.4576L39.076 45.5288C38.702 45.885 38.4972 46.3837 38.4972 46.9001C38.4972 47.9598 39.361 48.8147 40.4117 48.8147C41.4714 48.8147 42.3262 47.9509 42.3262 46.9001C42.3262 46.3302 42.068 45.7871 41.6317 45.422C41.5604 45.3685 41.5159 45.3062 41.4714 45.235C41.0172 44.3979 41.1597 43.6499 41.8632 43.1335C42.0324 43.0088 42.2906 43.0088 42.3173 43.0088H48.1588L48.2567 42.9821C48.3814 42.991 48.5417 43.1513 48.5417 43.3472V59.0996C48.5417 59.2955 48.3814 59.4558 48.1855 59.4558H18.9692ZM32.9852 54.9144C33.1811 54.9144 33.3414 55.0747 33.3414 55.2706V58.7434H47.8382V43.7212H42.2372L42.1036 43.8725C41.8988 44.113 41.881 44.4246 42.0591 44.7897L42.0947 44.8699L42.1659 44.9322C42.7269 45.422 43.0475 46.1432 43.0475 46.9001C43.0475 48.3516 41.8721 49.527 40.4206 49.527C38.9691 49.527 37.7937 48.3427 37.7937 46.9001C37.7937 46.1789 38.0787 45.511 38.6041 45.0034C38.8089 44.763 38.9068 44.5315 38.9068 44.3089C38.9068 44.2555 38.9068 44.0774 38.7643 43.8904L38.6308 43.7123H27.8116C27.7849 43.7123 27.7403 43.7034 27.6869 43.6856L27.589 43.641C27.1526 43.3739 26.8766 42.9197 26.8766 42.4122C26.8766 42.0115 27.0458 41.6019 27.3396 41.2546C27.776 40.8271 27.9808 40.3374 27.9808 39.812C27.9808 38.7524 27.117 37.8975 26.0663 37.8975C25.0066 37.8975 24.1517 38.7613 24.1517 39.812C24.1517 40.3908 24.41 40.9251 24.8463 41.2902C24.9086 41.3436 24.9621 41.406 25.0066 41.4772C25.1758 41.7889 25.2648 42.0916 25.2648 42.3855C25.2648 42.893 25.0155 43.3205 24.5435 43.6232L24.4723 43.6499L24.3298 43.6945L24.2675 43.7034H19.3254V58.7167H32.6201V55.2438C32.629 55.0747 32.7893 54.9144 32.9852 54.9144ZM11.0529 21.5574C10.4474 21.8334 9.36995 22.4657 8.90691 23.5699C7.88287 27.5413 5.23818 37.8797 5.14913 38.7613L4.73061 47.7817L3.18119 56.5885C3.10996 57.0604 3.23462 57.5502 3.51957 57.9331C3.81343 58.3249 4.23195 58.5742 4.7217 58.6543C4.81966 58.6721 4.92651 58.6811 5.02446 58.6811C5.91493 58.6811 6.66293 58.0221 6.7965 57.1227L8.35482 48.2359C8.36372 48.1824 8.37263 48.1201 8.37263 48.0489L8.67539 40.7826C8.68429 40.6669 8.73772 40.56 8.83567 40.4977C8.8891 40.4621 8.96034 40.4442 9.03158 40.4442C9.0761 40.4442 9.12953 40.4531 9.17405 40.471C9.459 40.6847 9.97547 42.5725 11.5249 48.1824L11.9256 56.9179C11.9612 57.9063 12.7626 58.6721 13.7511 58.6721C14.2764 58.6543 14.7395 58.4495 15.0779 58.0933C15.4162 57.7372 15.5943 57.2741 15.5765 56.7844L15.1847 47.9064C15.1758 47.7817 15.158 47.657 15.1313 47.5413L12.6914 37.8263L12.6469 37.7194C12.5935 37.5858 12.5935 37.5146 12.6024 37.4434L13.2791 34.4336L11.8544 33.5876C11.2043 33.2404 10.7324 32.5992 10.581 31.869L10.0378 28.138C10.02 28.04 10.0467 27.951 10.1001 27.8708C10.1536 27.7907 10.2426 27.7462 10.3317 27.7283H10.3406C10.5632 27.7283 10.7057 27.8619 10.7324 28.0311L11.2845 31.7444C11.3913 32.2697 11.7297 32.715 12.2016 32.9732L19.0226 37.0337C19.2007 37.1317 19.3966 37.194 19.5925 37.2207C19.6905 37.2386 19.7795 37.2386 19.8775 37.2386C20.5453 37.2386 21.1687 36.8735 21.4803 36.2768C21.7119 35.8494 21.7653 35.3508 21.6228 34.8877C21.4803 34.4158 21.1687 34.0329 20.7412 33.8013L14.8107 30.2217C14.7217 30.1682 14.6593 30.0792 14.6415 29.9812L13.9559 26.3748C13.9381 26.2858 13.9559 26.1878 14.0093 26.1077C14.0627 26.0275 14.1429 25.9741 14.2408 25.9563C14.2497 25.9563 14.2497 25.9563 14.2586 25.9563C14.4902 25.9563 14.6237 26.0721 14.6593 26.2413L15.3183 29.6963L18.6041 31.682V29.4113L16.7876 27.6215C16.743 27.577 16.7163 27.5324 16.6985 27.4701L15.9416 25.0391C15.5676 24.1219 14.8374 23.2938 14.1072 22.9465L14.0182 22.902H13.9113C13.7422 22.8664 13.5017 22.813 13.2613 22.7328C12.6291 22.5191 12.0503 22.154 11.5516 21.6375L11.329 21.4149L11.0529 21.5574ZM26.0752 37.2029C27.5266 37.2029 28.702 38.3873 28.702 39.8298C28.702 40.5422 28.4171 41.2101 27.9095 41.7087C27.6869 41.9848 27.589 42.2163 27.589 42.4211C27.589 42.5636 27.6424 42.706 27.7314 42.8307L27.865 43.0088H32.6201V37.568C32.6201 37.4523 32.6468 37.3365 32.7091 37.2386C32.9941 36.7577 33.4393 36.4906 33.9558 36.4906C34.3565 36.4906 34.7661 36.6598 35.1134 36.9625C35.5319 37.3899 36.0306 37.6036 36.556 37.6036C37.6156 37.6036 38.4705 36.7399 38.4705 35.6891C38.4705 34.6295 37.6067 33.7746 36.556 33.7746C35.9772 33.7746 35.4429 34.0329 35.0778 34.4781C35.0244 34.5404 34.962 34.5939 34.8908 34.6295C34.5791 34.7987 34.2764 34.8877 33.9736 34.8877C33.4571 34.8877 33.0119 34.6206 32.7091 34.1308C32.6468 34.0329 32.6201 33.9171 32.6201 33.8013V28.6277H19.3254V31.5841C19.3254 31.6108 19.3165 31.6464 19.2987 31.6998L19.174 32.0471L21.1063 33.2136C21.703 33.5342 22.1304 34.0685 22.3174 34.7096C22.5133 35.3597 22.442 36.0453 22.1215 36.6419C21.6762 37.4612 20.8214 37.9776 19.8864 37.9776L19.4234 37.9331L19.3254 38.3873V43.0088H24.2497L24.3833 42.8485C24.4901 42.7149 24.5525 42.5636 24.5525 42.4033C24.5525 42.2608 24.5168 42.1005 24.4367 41.9313L24.4011 41.8512L24.3298 41.7889C23.7688 41.2902 23.4483 40.5689 23.4483 39.8209C23.4483 38.3784 24.6237 37.2029 26.0752 37.2029ZM14.6504 15.0481C13.101 15.0481 11.7208 16.0365 11.231 17.5058C10.9283 18.4229 10.9906 19.3936 11.418 20.2573C11.8455 21.1211 12.5845 21.7622 13.5017 22.0739C13.6976 22.1362 13.9024 22.1896 14.0983 22.2163C14.2853 22.2431 14.4723 22.2609 14.6504 22.2609C16.1909 22.2609 17.5623 21.2724 18.0609 19.8032C18.3637 18.886 18.3014 17.9065 17.8739 17.0516C17.4465 16.1879 16.7074 15.5467 15.7902 15.2351C15.4162 15.1104 15.0333 15.0481 14.6504 15.0481Z" fill="white"/>
<path d="M14.7395 22.7061L14.6593 22.7328L14.695 22.7774C14.6593 22.7507 14.6148 22.7239 14.5792 22.7061C14.6059 22.7061 14.6237 22.7061 14.6504 22.7061C14.686 22.7061 14.7128 22.7061 14.7395 22.7061ZM18.8802 28.4586V29.0552L18.7911 28.9661L18.5507 28.7346L18.8802 28.4586ZM14.6504 13.8905C12.6558 13.8905 10.7947 15.146 10.1268 17.1407C9.73504 18.2983 9.81518 19.5272 10.3227 20.6313C9.53913 21.0321 8.35481 21.8335 7.81162 23.2048C7.80272 23.2315 7.79381 23.2671 7.78491 23.2938C6.03959 30.0258 3.9648 38.1914 3.99151 38.7435L3.57299 47.6838L2.03248 56.4193C1.91672 57.2029 2.11262 57.9954 2.58457 58.6366C3.05652 59.2777 3.75109 59.6962 4.5347 59.812C4.68608 59.8387 4.82855 59.8476 4.97993 59.8476C6.44921 59.8476 7.71367 58.7523 7.92739 57.3187L9.48571 48.4229C9.50352 48.316 9.51242 48.2092 9.51242 48.1023L9.61037 45.698C9.87751 46.6509 10.1447 47.6037 10.3673 48.414L10.7502 56.9714C10.8125 58.5831 12.1215 59.8387 13.7332 59.8387C13.7421 59.8387 13.8401 59.8387 13.849 59.8387C15.4875 59.7764 16.7787 58.3872 16.7163 56.7399L16.3245 47.8619C16.3156 47.6571 16.2889 47.4612 16.2355 47.2653L13.8134 37.577C13.8045 37.5413 13.7956 37.5057 13.7867 37.4701L14.223 35.52L18.1589 37.8708V59.1085C18.1589 59.5537 18.5151 59.9099 18.9603 59.9099H48.1766C48.6218 59.9099 48.978 59.5537 48.978 59.1085V43.3472C48.978 42.902 48.6218 42.5458 48.1766 42.5458C48.141 42.5458 48.1143 42.5636 48.0875 42.5636H42.3084C42.2104 42.5636 41.8632 42.5814 41.5871 42.7773C40.7056 43.4273 40.5097 44.4247 41.0706 45.4487C41.133 45.5645 41.222 45.6713 41.3378 45.7693C41.6762 46.0542 41.8721 46.4639 41.8721 46.9091C41.8721 47.7194 41.2131 48.3784 40.4028 48.3784C39.5925 48.3784 38.9335 47.7194 38.9335 46.9091C38.9335 46.5084 39.0938 46.1255 39.3699 45.8672C39.3966 45.8494 39.45 45.7871 39.4678 45.7604C39.8418 45.333 40.0466 44.8254 40.0466 44.3178C40.0466 43.7034 39.7528 43.1513 39.2274 42.7773C38.9691 42.5903 38.604 42.5636 38.4616 42.5636H33.7777V37.7283C33.8578 37.6482 33.9291 37.6482 33.9558 37.6482C34.0359 37.6482 34.1695 37.6838 34.3565 37.8352C34.9442 38.4318 35.7189 38.7613 36.556 38.7613C38.2479 38.7613 39.6281 37.3811 39.6281 35.6892C39.6281 33.9973 38.2479 32.6171 36.556 32.6171C35.6744 32.6171 34.8374 32.9911 34.2586 33.65C34.1517 33.7034 34.0537 33.7212 33.9825 33.7212C33.938 33.7212 33.8757 33.7212 33.7866 33.6233V28.2538C33.7866 27.8085 33.4304 27.4523 32.9852 27.4523H18.9692C18.7733 27.4523 18.6041 27.5325 18.4616 27.6482L17.7493 26.9448L17.028 24.6474C16.841 24.1754 16.5382 23.65 16.1553 23.1692C17.5355 22.7061 18.6664 21.6287 19.1562 20.1683C19.5658 18.9573 19.4768 17.6661 18.9069 16.5263C18.337 15.3865 17.3664 14.5316 16.1553 14.1309C15.6567 13.9706 15.1491 13.8905 14.6504 13.8905ZM14.6504 21.8157C14.4901 21.8157 14.3299 21.8068 14.1607 21.78C13.9826 21.7533 13.8045 21.7088 13.6353 21.6554C12.8339 21.3882 12.1838 20.8272 11.8098 20.0614C11.4358 19.3045 11.3735 18.4497 11.6406 17.6483C12.0859 16.3304 13.3236 15.4933 14.6415 15.4933C14.971 15.4933 15.3094 15.5468 15.6388 15.6536C16.4403 15.9208 17.0903 16.4818 17.4643 17.2476C17.8383 18.0045 17.9006 18.8593 17.6335 19.6607C17.1972 20.9608 15.9861 21.8157 14.6504 21.8157ZM5.02446 58.2359C4.94431 58.2359 4.87308 58.2269 4.79293 58.218C4.42784 58.1646 4.10727 57.9687 3.88466 57.6749C3.66204 57.381 3.57299 57.0159 3.62642 56.6775L5.16693 47.9153C5.17584 47.8797 5.17584 47.8441 5.17584 47.8174L5.59436 38.8147C5.66559 38.0489 7.90958 29.1977 9.31652 23.748C9.72613 22.7685 10.7146 22.2075 11.2399 21.967C11.7653 22.5013 12.3975 22.9288 13.1277 23.1781C13.386 23.2671 13.6531 23.3295 13.9202 23.374C13.9202 23.374 13.9202 23.374 13.9291 23.374C14.5703 23.6767 15.2114 24.4158 15.532 25.1994L16.2889 27.6304C16.3245 27.7551 16.3957 27.8709 16.4937 27.9599L18.1767 29.6162V30.9163L15.7368 29.447L15.1135 26.1879C15.0422 25.805 14.7039 25.5378 14.3299 25.5378C14.2764 25.5378 14.2319 25.5467 14.1785 25.5556C13.7421 25.6358 13.4572 26.0543 13.5373 26.4906L14.223 30.097C14.2675 30.3196 14.4011 30.5155 14.597 30.6313L20.5453 34.2199C21.2132 34.585 21.4625 35.422 21.1063 36.0899C20.8659 36.544 20.394 36.8112 19.8953 36.8112C19.8241 36.8112 19.7528 36.8023 19.6816 36.7934C19.5302 36.7666 19.3788 36.7221 19.272 36.6598L12.4332 32.5814C12.0681 32.3855 11.8187 32.0472 11.7475 31.6821L11.1954 27.9688C11.1331 27.577 10.7947 27.2831 10.4118 27.2831C10.3673 27.2831 10.3317 27.2831 10.2871 27.292C9.8508 27.3544 9.54804 27.764 9.61037 28.2003L10.1714 31.9581C10.3495 32.8308 10.9016 33.5699 11.6495 33.9706L12.7983 34.6562L12.1927 37.3454C12.1571 37.4968 12.166 37.6571 12.2284 37.7996C12.2284 37.7996 12.2818 37.951 12.2907 37.951L14.7128 47.6393C14.7395 47.7283 14.7484 47.8263 14.7484 47.9242L15.1402 56.7933C15.1669 57.5502 14.5703 58.1913 13.76 58.2269C13.012 58.2269 12.4064 57.6481 12.3797 56.8912L11.9968 48.2359C11.9968 48.1735 11.9879 48.1201 11.9701 48.0578C9.80627 40.2484 9.80628 40.2484 9.35214 40.0525C9.25418 40.0079 9.14733 39.9901 9.04047 39.9901C8.88909 39.9901 8.73771 40.0347 8.61305 40.1148C8.39043 40.2573 8.25686 40.4977 8.23905 40.7559L7.93629 48.0222C7.93629 48.0667 7.92739 48.1201 7.92739 48.1468L6.36906 57.0426C6.2533 57.7194 5.71902 58.2359 5.02446 58.2359ZM19.8864 38.4051C20.9728 38.4051 21.9879 37.8085 22.5133 36.8379C23.2969 35.3953 22.7537 33.5788 21.3379 32.813L19.7172 31.8334C19.7439 31.7444 19.7706 31.6643 19.7706 31.5663V29.0552H32.1749V33.7836C32.1749 33.9795 32.2283 34.1754 32.3351 34.3446C32.718 34.9768 33.3058 35.3152 33.9736 35.3152C34.3387 35.3152 34.7216 35.2172 35.1045 35.0035C35.2292 34.9323 35.3271 34.8521 35.4162 34.7453C35.7011 34.4069 36.1107 34.211 36.556 34.211C37.3663 34.211 38.0252 34.8699 38.0252 35.6803C38.0252 36.4906 37.3663 37.1495 36.556 37.1495C36.1553 37.1495 35.7813 36.9893 35.4874 36.6865C35.4785 36.6776 35.4251 36.6331 35.4162 36.6153C34.9887 36.2413 34.4812 36.0365 33.9647 36.0365C33.2969 36.0365 32.7002 36.3837 32.3351 37.0071C32.2372 37.1763 32.1838 37.3633 32.1838 37.5592V42.5547H28.0876C28.0431 42.4924 28.0342 42.4389 28.0342 42.4211C28.0342 42.341 28.0698 42.2074 28.2212 42.0204C28.8178 41.4327 29.1473 40.658 29.1473 39.821C29.1473 38.1291 27.767 36.7488 26.0751 36.7488C24.3833 36.7488 23.003 38.1291 23.003 39.821C23.003 40.7025 23.377 41.5396 24.036 42.1184C24.0894 42.2252 24.1161 42.3232 24.1161 42.3944C24.1161 42.43 24.1072 42.4835 24.0538 42.5458H19.7795V38.3695C19.8151 38.3962 19.8508 38.4051 19.8864 38.4051ZM19.7706 58.2982V44.1664H24.3209C24.3387 44.1664 24.3565 44.1575 24.3744 44.1575C24.4278 44.1575 24.4812 44.1397 24.5346 44.1219C24.5881 44.1041 24.6326 44.0952 24.686 44.0685C24.7038 44.0596 24.7216 44.0596 24.7394 44.0507C25.3717 43.6678 25.7101 43.089 25.7101 42.4122C25.7101 42.0471 25.6032 41.6642 25.3984 41.2902C25.3361 41.1656 25.247 41.0587 25.1313 40.9697C24.7929 40.6847 24.597 40.2751 24.597 39.8299C24.597 39.0195 25.2559 38.3606 26.0662 38.3606C26.8766 38.3606 27.5355 39.0195 27.5355 39.8299C27.5355 40.2306 27.3752 40.6135 27.0814 40.8895C27.0636 40.9073 27.019 40.9608 27.0012 40.9786C26.6272 41.406 26.4224 41.9136 26.4224 42.43C26.4224 43.0979 26.7697 43.6945 27.3841 44.0596C27.4019 44.0685 27.4287 44.0774 27.4465 44.0863C27.4732 44.0952 27.491 44.1041 27.5177 44.113C27.6068 44.1486 27.6958 44.1664 27.7938 44.1664H33.2523H38.3814C38.4349 44.2288 38.4349 44.2822 38.4349 44.3089C38.4349 44.4247 38.3725 44.5582 38.2657 44.6829C37.6512 45.2706 37.3218 46.0542 37.3218 46.9002C37.3218 48.5921 38.702 49.9723 40.3939 49.9723C42.0858 49.9723 43.466 48.5921 43.466 46.9002C43.466 46.0097 43.0831 45.1727 42.4331 44.6028C42.3173 44.3623 42.344 44.2466 42.4153 44.1664H47.3752V58.2893H33.7866V55.2617C33.7866 54.8165 33.4304 54.4603 32.9852 54.4603C32.54 54.4603 32.1838 54.8165 32.1838 55.2617V58.2893H19.7706V58.2982Z" fill="#481D72"/>
</svg>
