<svg viewBox="0 0 72 72" fill="none" xmlns="http://www.w3.org/2000/svg">
<path d="M42.9302 11.55L28.6208 44.4931L34.125 46.8839L48.4344 13.9408L42.9302 11.55Z" fill="#16A7A7"/>
<path d="M54.8154 22.3729L52.45 24.7384L54.8154 27.1038L57.1808 24.7384L54.8154 22.3729Z" fill="white"/>
<path d="M28.3326 52.1339C28.3326 52.2616 28.4092 52.3255 28.473 52.351C28.5369 52.3765 28.639 52.3893 28.7412 52.2999L32.9036 48.4312L28.3198 46.4393L28.3326 52.1339Z" fill="#16A7A7"/>
<path d="M14.8672 17.9601L10.696 22.1312L14.8672 26.3023L19.0383 22.1312L14.8672 17.9601Z" fill="white"/>
<path d="M50.5366 9.11781C50.8558 8.37725 50.8685 7.57285 50.5749 6.81953C50.2812 6.07897 49.7194 5.49163 48.9788 5.17243C48.2383 4.85322 47.4339 4.84046 46.6806 5.13412C45.94 5.42779 45.3527 5.9896 45.0335 6.73015L43.7056 9.79453L49.2087 12.1822L50.5366 9.11781Z" fill="#16A7A7"/>
<path d="M4.34132 63.2423H57.2018L48.1619 36.7227H40.6286L35.4319 48.6993L30.0565 53.7044C29.6479 54.0875 29.1244 54.2918 28.6009 54.2918C28.3073 54.2918 28.0136 54.2279 27.7327 54.113C26.9283 53.7683 26.4431 53.0022 26.4303 52.1339L26.4176 44.7922L29.9161 36.7355H17.7735C16.203 36.7355 14.7474 37.5909 13.9686 38.9444L2.23456 59.6289C1.80044 60.3822 1.81321 61.2888 2.24733 62.0421C2.68145 62.7954 3.47308 63.2423 4.34132 63.2423ZM36.6194 50.0017H43.5781V51.9169H36.6194V50.0017ZM10.9297 50.0017H23.6213V51.9169H10.9297V50.0017ZM10.9297 54.9174H42.9524V56.8326H10.9297V54.9174Z" fill="white"/>
<path d="M67.6588 65.1575H4.34114C3.46013 65.1575 2.6302 64.8894 1.92795 64.4297V64.8C1.91518 65.4512 2.17054 66.0896 2.6302 66.562C3.07709 67.0217 3.68996 67.2771 4.35391 67.2771H67.6715C68.3227 67.2771 68.9356 67.0217 69.3952 66.562C69.8549 66.0896 70.1102 65.4384 70.0975 64.8L70.0847 64.4297C69.3697 64.9022 68.5398 65.1575 67.6588 65.1575Z" fill="white"/>
<path d="M58.0444 38.9444C57.2656 37.5782 55.81 36.7355 54.2395 36.7355H50.1792L59.2191 63.2551H67.6461C68.5144 63.2551 69.2932 62.8082 69.7401 62.0549C70.1742 61.3015 70.187 60.4078 69.7529 59.6417L58.0444 38.9444ZM58.5424 49.2483C56.9336 49.2483 55.6695 48.2907 55.6695 47.0522C55.6695 45.8137 56.9336 44.8561 58.5424 44.8561C60.1512 44.8561 61.4152 45.8137 61.4152 47.0522C61.4152 48.2907 60.1512 49.2483 58.5424 49.2483Z" fill="white"/>
<path d="M57.572 47.116C57.6231 47.116 57.9806 47.3459 58.5424 47.3459C59.0276 47.3459 59.3596 47.1799 59.4745 47.065C59.3596 46.9628 59.0276 46.7841 58.5424 46.7841C57.9678 46.7841 57.6231 47.0139 57.572 47.116Z" fill="white"/>
<path d="M71.9872 60.5615C71.9489 59.9103 71.7702 59.2719 71.4382 58.6846L59.7042 38C58.5934 36.0337 56.4994 34.8207 54.2394 34.8207H41.4584L50.958 12.9488L52.2859 9.88441C52.8094 8.67143 52.8349 7.34353 52.3497 6.11778C51.8645 4.89204 50.9452 3.93442 49.7322 3.41092C48.532 2.88742 47.1913 2.86189 45.9656 3.34708C44.7398 3.83227 43.7822 4.75158 43.2587 5.96457L41.5478 9.90995L30.7331 34.8207H17.7606C15.5006 34.8207 13.4066 36.0465 12.2958 38L0.561802 58.6846C0.229828 59.2719 0.0510729 59.9103 0.0127682 60.5615C0.0127682 60.587 0 60.6125 0 60.6381V60.8296V60.8679L0.0127682 65.7326H0.102146C0.268133 66.537 0.663948 67.3031 1.25129 67.9032C2.06845 68.7331 3.16652 69.1928 4.3412 69.1928H67.6588C68.8335 69.1928 69.9315 68.7331 70.7487 67.9032C71.3361 67.3031 71.7319 66.537 71.8979 65.7326H72V60.8679C72 60.8551 72 60.8424 72 60.8296V60.6381C72 60.6125 71.9872 60.5998 71.9872 60.5615ZM45.0207 6.73066C45.34 5.9901 45.9273 5.4283 46.6678 5.13463C47.4084 4.84096 48.2256 4.85373 48.9661 5.17294C49.7067 5.49214 50.2685 6.07948 50.5622 6.82004C50.8558 7.56059 50.8431 8.37776 50.5238 9.11832L49.196 12.1827L43.6929 9.79503L45.0207 6.73066ZM42.9268 11.5443L48.4299 13.9319L34.1167 46.8739L28.6136 44.4863L42.9268 11.5443ZM32.9037 48.4444L28.7413 52.3132C28.6391 52.4026 28.5497 52.3898 28.4731 52.3643C28.4093 52.3387 28.3327 52.2749 28.3327 52.1472L28.3199 46.4654L32.9037 48.4444ZM2.23444 59.6294L13.9684 38.9449C14.7473 37.5787 16.2029 36.736 17.7734 36.736H29.9159L26.4174 44.7927L26.4302 52.1345C26.4302 53.0027 26.9282 53.756 27.7326 54.1135C28.0135 54.2412 28.3071 54.2923 28.6008 54.2923C29.1371 54.2923 29.6478 54.088 30.0564 53.7049L35.4318 48.6998L40.6285 36.7232H48.1617L57.2016 63.2428H4.3412C3.47296 63.2428 2.69409 62.7959 2.24721 62.0426C1.80032 61.2893 1.81309 60.3955 2.23444 59.6294ZM69.3825 66.5753C68.9356 67.035 68.3228 67.2903 67.6588 67.2903H4.3412C3.69002 67.2903 3.07714 67.035 2.61749 66.5753C2.15783 66.1029 1.90246 65.4517 1.91523 64.8133L1.928 64.443C2.63025 64.9154 3.44742 65.1708 4.3412 65.1708H67.6588C68.5398 65.1708 69.3697 64.9027 70.072 64.443L70.0848 64.8133C70.0975 65.4517 69.8422 66.1029 69.3825 66.5753ZM69.7528 62.0426C69.3187 62.7959 68.527 63.2428 67.6588 63.2428H59.2318L50.1791 36.736H54.2394C55.8099 36.736 57.2655 37.5914 58.0443 38.9449L69.7783 59.6294C70.1997 60.3955 70.1869 61.2893 69.7528 62.0426Z" fill="#481D72"/>
<path d="M58.5423 44.8688C56.9335 44.8688 55.6694 45.8264 55.6694 47.065C55.6694 48.3035 56.9335 49.2611 58.5423 49.2611C60.1511 49.2611 61.4151 48.3035 61.4151 47.065C61.4151 45.8264 60.1511 44.8688 58.5423 44.8688ZM58.5423 47.3331C57.9805 47.3331 57.6357 47.1033 57.5719 47.1033C57.623 47.0011 57.9677 46.7713 58.5423 46.7713C59.0275 46.7713 59.3595 46.9373 59.4744 47.0522C59.3595 47.1671 59.0275 47.3331 58.5423 47.3331Z" fill="#481D72"/>
<path d="M13.7386 27.8743C14.0451 28.1808 14.4409 28.3467 14.8622 28.3467C15.2836 28.3467 15.6922 28.1808 15.9858 27.8743L20.6079 23.2522C21.2336 22.6266 21.2336 21.6179 20.6079 20.9923L15.9858 16.3702C15.3602 15.7445 14.3515 15.7573 13.7259 16.3702L9.10375 20.9923C8.47811 21.6179 8.47811 22.6266 9.10375 23.2522L13.7386 27.8743ZM14.8622 17.9534L19.0374 22.1286L14.8622 26.3038L10.687 22.1286L14.8622 17.9534Z" fill="#481D72"/>
<path d="M50.8685 25.8569L53.6903 28.6787C53.9967 28.9852 54.4053 29.1511 54.8139 29.1511C55.2225 29.1511 55.631 28.9979 55.9375 28.6787L58.7592 25.8569C59.3849 25.2313 59.3849 24.2226 58.7592 23.597L55.9375 20.7752C55.3118 20.1496 54.3031 20.1496 53.6775 20.7752L50.8557 23.597C50.2556 24.2226 50.2556 25.2441 50.8685 25.8569ZM54.8266 22.3712L57.1888 24.7333L54.8266 27.1082L52.4518 24.7333L54.8266 22.3712Z" fill="#481D72"/>
<path d="M42.9524 54.9174H10.9297V56.8326H42.9524V54.9174Z" fill="#481D72"/>
<path d="M23.6213 50.0016H10.9297V51.9169H23.6213V50.0016Z" fill="#481D72"/>
<path d="M43.5778 50.0016H36.6191V51.9169H43.5778V50.0016Z" fill="#481D72"/>
</svg>
